<svg width="139" height="114" viewBox="0 0 139 114" fill="none" xmlns="http://www.w3.org/2000/svg">
<g filter="url(#filter0_d_33_22)">
<path d="M69.6571 25.8745L99.574 74.3937H39.7402L69.6571 25.8745Z" fill="#28F5BE"/>
</g>
<g filter="url(#filter1_d_33_22)">
<g filter="url(#filter2_d_33_22)">
<path d="M34.4482 77.3575L69.7181 20.1568L104.988 77.3575H34.4482Z" stroke="#28F5BE" stroke-opacity="0.1" stroke-width="0.164547" stroke-linejoin="round" shape-rendering="crispEdges"/>
</g>
</g>
<path d="M69.6569 20L70.8817 22.1214H68.4321L69.6569 20Z" fill="#28F5BE"/>
<path d="M68.4698 22.0996L69.6569 20.0435L70.844 22.0996H68.4698Z" stroke="white" stroke-opacity="0.5" stroke-width="0.043515"/>
<path d="M34.3554 77.4679L35.5801 75.3465L36.8049 77.4679L34.3554 77.4679Z" fill="#28F5BE"/>
<path d="M36.7672 77.4461L34.3931 77.4461L35.5801 75.39L36.7672 77.4461Z" stroke="white" stroke-opacity="0.5" stroke-width="0.043515"/>
<path d="M105.123 77.4679L102.674 77.4679L103.899 75.3465L105.123 77.4679Z" fill="#28F5BE"/>
<path d="M103.899 75.39L105.086 77.4461L102.712 77.4461L103.899 75.39Z" stroke="white" stroke-opacity="0.5" stroke-width="0.043515"/>
<path d="M57.8979 55.8341C57.9529 55.7093 57.8964 55.5636 57.7717 55.5086C57.6469 55.4536 57.5012 55.5102 57.4462 55.6349L57.8979 55.8341ZM56.2363 57.9164L56.0776 57.7274L56.2363 57.9164ZM53.8394 59.1023L53.7485 58.8728L53.8394 59.1023ZM49.372 60.051L49.356 59.8047L49.372 60.051ZM39.2564 50.9317L39.0176 50.994L39.2564 50.9317ZM37.3935 44.3265L37.6178 44.2236L37.3935 44.3265ZM35.311 41.4508L35.4549 41.2503L35.311 41.4508ZM32.3319 39.9933L32.3054 40.2387L32.3319 39.9933ZM26.299 41.5397L26.1122 41.3784L26.299 41.5397ZM24.97 45.1328L26.7727 44.2319L25.8718 42.4292L24.0691 43.3301L24.97 45.1328ZM57.4462 55.6349C57.08 56.4656 56.7289 57.1806 56.0776 57.7274L56.395 58.1055C57.143 57.4776 57.5319 56.6641 57.8979 55.8341L57.4462 55.6349ZM56.0776 57.7274C55.4394 58.2632 54.5816 58.5429 53.7485 58.8728L53.9303 59.3318C54.7148 59.0211 55.6782 58.7072 56.395 58.1055L56.0776 57.7274ZM53.7485 58.8728C52.3101 59.4426 50.9087 59.7041 49.356 59.8047L49.3879 60.2973C50.9795 60.1942 52.4336 59.9246 53.9303 59.3318L53.7485 58.8728ZM49.356 59.8047C46.8191 59.969 44.6587 58.8885 42.975 57.1844C41.2884 55.4776 40.0904 53.1534 39.4952 50.8695L39.0176 50.994C39.6308 53.3476 40.8666 55.753 42.6238 57.5314C44.3838 59.3126 46.677 60.4729 49.3879 60.2973L49.356 59.8047ZM39.4952 50.8695C39.2082 49.768 38.9874 48.6647 38.7062 47.524C38.429 46.3995 38.1017 45.2786 37.6178 44.2236L37.1691 44.4294C37.6339 45.4428 37.9525 46.5288 38.2269 47.6421C38.4973 48.7391 38.7336 49.9043 39.0176 50.994L39.4952 50.8695ZM37.6178 44.2236C37.1173 43.1322 36.5012 42.001 35.4549 41.2503L35.1671 41.6513C36.1009 42.3214 36.6729 43.3474 37.1691 44.4294L37.6178 44.2236ZM35.4549 41.2503C34.5405 40.5941 33.5176 39.8729 32.3583 39.7479L32.3054 40.2387C33.3138 40.3474 34.232 40.9804 35.1671 41.6513L35.4549 41.2503ZM32.3583 39.7479C31.429 39.6477 30.2407 39.6332 29.1031 39.8501C27.969 40.0664 26.8546 40.5187 26.1122 41.3784L26.4858 41.7011C27.1254 40.9604 28.1149 40.5411 29.1956 40.335C30.2727 40.1296 31.4099 40.1421 32.3054 40.2387L32.3583 39.7479ZM26.1122 41.3784C25.7977 41.7425 25.6295 42.1477 25.5079 42.546C25.4474 42.7439 25.397 42.9452 25.3475 43.1376C25.2974 43.3325 25.2477 43.5201 25.1868 43.7029L25.655 43.8591C25.722 43.6582 25.7754 43.4557 25.8256 43.2606C25.8764 43.0631 25.9236 42.8749 25.98 42.6902C26.092 42.3233 26.2349 41.9916 26.4858 41.7011L26.1122 41.3784Z" fill="#28F5BE"/>
<path d="M82.518 65.8587C82.5328 65.9942 82.6546 66.0921 82.7901 66.0774C82.9256 66.0626 83.0235 65.9408 83.0088 65.8053L82.518 65.8587ZM82.8732 63.9535L83.1052 64.0379L82.8732 63.9535ZM83.9414 62.3503L84.1349 62.5036L83.9414 62.3503ZM86.3869 60.1493L86.5239 60.3546L86.3869 60.1493ZM95.9826 62.195L96.1583 62.0217L95.9826 62.195ZM99.524 65.6449L99.3812 65.8462L99.524 65.6449ZM101.859 66.6889L101.835 66.9345L101.859 66.6889ZM104.243 66.5251L104.143 66.2994L104.243 66.5251ZM107.45 63.3873L107.692 63.4336L107.45 63.3873ZM106.905 60.2766L105.794 61.9581L107.475 63.0688L108.586 61.3873L106.905 60.2766ZM83.0088 65.8053C82.9381 65.155 82.9018 64.597 83.1052 64.0379L82.6413 63.8692C82.3948 64.5469 82.4474 65.2091 82.518 65.8587L83.0088 65.8053ZM83.1052 64.0379C83.3055 63.4872 83.7295 63.0153 84.1349 62.5036L83.748 62.197C83.375 62.6677 82.8766 63.2221 82.6413 63.8692L83.1052 64.0379ZM84.1349 62.5036C84.8217 61.6369 85.596 60.9736 86.5239 60.3546L86.2499 59.944C85.2896 60.5846 84.4737 61.2812 83.748 62.197L84.1349 62.5036ZM86.5239 60.3546C88.0272 59.3518 89.7425 59.2474 91.3922 59.7C93.0456 60.1537 94.62 61.165 95.8069 62.3683L96.1583 62.0217C94.9209 60.7671 93.2732 59.7043 91.5228 59.224C89.7686 58.7427 87.8983 58.8444 86.2499 59.944L86.5239 60.3546ZM95.8069 62.3683C96.3839 62.9534 96.9129 63.5557 97.5036 64.1707C98.0826 64.7735 98.6941 65.3585 99.3812 65.8462L99.6669 65.4436C99.0172 64.9825 98.4307 64.4233 97.8596 63.8287C97.3001 63.2462 96.7268 62.598 96.1583 62.0217L95.8069 62.3683ZM99.3812 65.8462C100.088 66.3476 100.892 66.8411 101.835 66.9345L101.883 66.4433C101.079 66.3635 100.365 65.9391 99.6669 65.4436L99.3812 65.8462ZM101.835 66.9345C102.638 67.0141 103.555 67.0991 104.343 66.7509L104.143 66.2994C103.494 66.5862 102.712 66.5254 101.883 66.4433L101.835 66.9345ZM104.343 66.7509C104.963 66.4767 105.716 66.0544 106.354 65.5037C106.989 64.9553 107.534 64.259 107.692 63.4336L107.207 63.341C107.079 64.0119 106.625 64.6171 106.031 65.13C105.44 65.6405 104.732 66.039 104.143 66.2994L104.343 66.7509ZM107.692 63.4336C107.76 63.0798 107.716 62.7558 107.648 62.459C107.614 62.3119 107.572 62.1663 107.534 62.0291C107.495 61.8896 107.459 61.7567 107.432 61.6233L106.948 61.7221C106.979 61.8742 107.02 62.0219 107.058 62.1617C107.098 62.3039 107.136 62.4365 107.167 62.5702C107.228 62.8349 107.256 63.0827 107.207 63.341L107.692 63.4336Z" fill="#28F5BE"/>
<path d="M88.923 43.4081L87.6604 41.8374L89.2311 40.5748L90.4937 42.1455L88.923 43.4081ZM88.9848 40.4127L88.7528 40.4971L88.9848 40.4127ZM88.087 39.0653L87.8935 39.2186L88.087 39.0653ZM86.0317 37.2154L85.8947 37.4208L86.0317 37.2154ZM77.9671 38.9348L77.7913 38.7614L77.9671 38.9348ZM74.9907 41.8342L75.1335 42.0355L74.9907 41.8342ZM73.0282 42.7116L73.0525 42.9572L73.0282 42.7116ZM71.0249 42.574L71.1246 42.3483L71.0249 42.574ZM68.3297 39.9368L68.0873 39.9831L68.3297 39.9368ZM68.306 38.4464C68.3333 38.3128 68.4637 38.2267 68.5973 38.254C68.7308 38.2813 68.8169 38.4117 68.7896 38.5452L68.306 38.4464ZM88.8317 41.9648C88.8911 41.4182 88.9203 40.9575 88.7528 40.4971L89.2167 40.3283C89.4273 40.9074 89.3818 41.4723 89.3224 42.0181L88.8317 41.9648ZM88.7528 40.4971C88.5873 40.0419 88.2368 39.6519 87.8935 39.2186L88.2804 38.912C88.5913 39.3043 89.0161 39.7768 89.2167 40.3283L88.7528 40.4971ZM87.8935 39.2186C87.3194 38.4941 86.672 37.9393 85.8947 37.4208L86.1687 37.0101C86.9784 37.5503 87.6674 38.1384 88.2804 38.912L87.8935 39.2186ZM85.8947 37.4208C84.6429 36.5857 83.2136 36.4977 81.8355 36.8759C80.4535 37.255 79.1363 38.1008 78.1428 39.1081L77.7913 38.7614C78.8354 37.7029 80.226 36.8056 81.7049 36.3998C83.1875 35.993 84.7718 36.0783 86.1687 37.0101L85.8947 37.4208ZM78.1428 39.1081C77.6571 39.6005 77.2161 40.1031 76.7172 40.6225C76.2299 41.1298 75.7139 41.6235 75.1335 42.0355L74.8478 41.6329C75.3909 41.2475 75.8818 40.7796 76.3612 40.2805C76.8289 39.7936 77.3143 39.2451 77.7913 38.7614L78.1428 39.1081ZM75.1335 42.0355C74.539 42.4574 73.8556 42.8777 73.0525 42.9572L73.0039 42.466C73.6691 42.4001 74.2618 42.0488 74.8478 41.6329L75.1335 42.0355ZM73.0525 42.9572C72.3794 43.024 71.5982 43.0973 70.9251 42.7998L71.1246 42.3483C71.6589 42.5844 72.3054 42.5352 73.0039 42.466L73.0525 42.9572ZM70.9251 42.7998C70.4013 42.5682 69.765 42.2114 69.2249 41.7454C68.6876 41.2816 68.2221 40.6891 68.0873 39.9831L68.5722 39.8905C68.6775 40.442 69.0513 40.9435 69.5475 41.3716C70.0408 41.7975 70.632 42.1305 71.1246 42.3483L70.9251 42.7998ZM68.0873 39.9831C68.0291 39.6782 68.0664 39.3997 68.1247 39.1478C68.1535 39.0231 68.1888 38.8997 68.2208 38.7848C68.2535 38.6675 68.2834 38.557 68.306 38.4464L68.7896 38.5452C68.7632 38.6745 68.7291 38.7998 68.6963 38.9173C68.6629 39.0373 68.6314 39.1477 68.6056 39.2589C68.5548 39.4789 68.5322 39.681 68.5722 39.8905L68.0873 39.9831Z" fill="#28F5BE"/>
<path d="M8.25528 106.607C7.77214 106.607 7.32561 106.49 6.91567 106.255C6.52038 106.021 6.20561 105.706 5.97137 105.311C5.73712 104.901 5.61999 104.455 5.61999 103.971V103.357H7.39881V103.971C7.39881 104.206 7.47933 104.411 7.64038 104.586C7.81606 104.747 8.02103 104.828 8.25528 104.828H18.7964C19.0306 104.828 19.2283 104.747 19.3893 104.586C19.565 104.411 19.6529 104.206 19.6529 103.971V100.436C19.6529 100.201 19.565 100.004 19.3893 99.8428C19.2283 99.6818 19.0306 99.6012 18.7964 99.6012H8.25528C7.77214 99.6012 7.32561 99.4841 6.91567 99.2499C6.52038 99.001 6.20561 98.6789 5.97137 98.2836C5.73712 97.8883 5.61999 97.4491 5.61999 96.966V93.4303C5.61999 92.9471 5.73712 92.5079 5.97137 92.1126C6.20561 91.7027 6.52038 91.3806 6.91567 91.1464C7.32561 90.9121 7.77214 90.795 8.25528 90.795H18.7964C19.2795 90.795 19.7187 90.9121 20.114 91.1464C20.524 91.3806 20.8461 91.7027 21.0803 92.1126C21.3146 92.5079 21.4317 92.9471 21.4317 93.4303V94.0452H19.6529V93.4303C19.6529 93.196 19.565 92.9984 19.3893 92.8373C19.2283 92.6617 19.0306 92.5738 18.7964 92.5738H8.25528C8.02103 92.5738 7.81606 92.6617 7.64038 92.8373C7.47933 92.9984 7.39881 93.196 7.39881 93.4303V96.966C7.39881 97.2002 7.47933 97.3978 7.64038 97.5589C7.81606 97.7199 8.02103 97.8005 8.25528 97.8005H18.7964C19.2795 97.8005 19.7187 97.9249 20.114 98.1738C20.524 98.408 20.8461 98.7228 21.0803 99.1181C21.3146 99.5134 21.4317 99.9526 21.4317 100.436V103.971C21.4317 104.455 21.3146 104.901 21.0803 105.311C20.8461 105.706 20.524 106.021 20.114 106.255C19.7187 106.49 19.2795 106.607 18.7964 106.607H8.25528ZM23.7434 111.658V93.8695H34.0649C34.548 93.8695 34.9873 93.9939 35.3825 94.2428C35.7925 94.4771 36.1146 94.7992 36.3488 95.2091C36.5977 95.6044 36.7221 96.0436 36.7221 96.5267V103.949C36.7221 104.433 36.5977 104.879 36.3488 105.289C36.1146 105.684 35.7925 106.006 35.3825 106.255C34.9873 106.49 34.548 106.607 34.0649 106.607H25.5442V111.658H23.7434ZM26.4226 104.806H34.0649C34.2992 104.806 34.4968 104.725 34.6578 104.564C34.8335 104.389 34.9214 104.184 34.9214 103.949V96.5267C34.9214 96.2925 34.8335 96.0948 34.6578 95.9338C34.4968 95.7581 34.2992 95.6703 34.0649 95.6703H26.4226C26.1883 95.6703 25.9834 95.7581 25.8077 95.9338C25.632 96.0948 25.5442 96.2925 25.5442 96.5267V103.949C25.5442 104.184 25.632 104.389 25.8077 104.564C25.9834 104.725 26.1883 104.806 26.4226 104.806ZM40.94 106.607C40.4568 106.607 40.0103 106.49 39.6004 106.255C39.2051 106.006 38.883 105.684 38.6341 105.289C38.3998 104.879 38.2827 104.433 38.2827 103.949V99.3377H49.4387V96.5267C49.4387 96.2925 49.3509 96.0948 49.1752 95.9338C49.0142 95.7581 48.8165 95.6703 48.5823 95.6703H38.2827V93.8695H48.5823C49.0801 93.8695 49.5266 93.9939 49.9219 94.2428C50.3318 94.4771 50.6539 94.7992 50.8882 95.2091C51.137 95.6044 51.2615 96.0436 51.2615 96.5267V106.607H40.94ZM40.94 104.806H49.4387V101.138H40.0835V103.949C40.0835 104.184 40.164 104.389 40.3251 104.564C40.5008 104.725 40.7057 104.806 40.94 104.806ZM57.4997 106.607L52.4927 93.8695H54.4252L58.2903 103.357L62.3969 93.8695H64.7687L69.1388 103.335L72.7404 93.8695H74.6949L69.8855 106.607H68.3263L63.5828 96.0875L59.0809 106.607H57.4997ZM76.4361 106.607V93.8695H86.7577C87.2408 93.8695 87.68 93.9939 88.0753 94.2428C88.4852 94.4771 88.8073 94.7992 89.0416 95.2091C89.2905 95.6044 89.4149 96.0436 89.4149 96.5267V106.607H87.6141V96.5267C87.6141 96.2925 87.5263 96.0948 87.3506 95.9338C87.1895 95.7581 86.9919 95.6703 86.7577 95.6703H79.1153C78.8811 95.6703 78.6761 95.7581 78.5004 95.9338C78.3248 96.0948 78.2369 96.2925 78.2369 96.5267V106.607H76.4361ZM100.763 106.607C100.207 106.607 99.6943 106.468 99.2258 106.189C98.772 105.911 98.406 105.545 98.1278 105.091C97.8496 104.623 97.7105 104.11 97.7105 103.554V90.795H100.609V103.422C100.609 103.496 100.631 103.561 100.675 103.62C100.734 103.664 100.8 103.686 100.873 103.686H110.316C110.389 103.686 110.455 103.664 110.514 103.62C110.572 103.561 110.601 103.496 110.601 103.422V90.795H113.522V103.554C113.522 104.11 113.383 104.623 113.105 105.091C112.827 105.545 112.453 105.911 111.985 106.189C111.531 106.468 111.026 106.607 110.47 106.607H100.763ZM115.897 111.658V93.8695H125.801C126.357 93.8695 126.862 94.0086 127.316 94.2867C127.785 94.5649 128.151 94.9309 128.414 95.3848C128.692 95.8386 128.832 96.3437 128.832 96.9001V103.576C128.832 104.132 128.692 104.638 128.414 105.091C128.151 105.545 127.785 105.911 127.316 106.189C126.862 106.468 126.357 106.607 125.801 106.607H118.774V111.658H115.897ZM119.037 103.73H125.691C125.764 103.73 125.823 103.708 125.867 103.664C125.925 103.605 125.955 103.54 125.955 103.466V97.0099C125.955 96.9367 125.925 96.8781 125.867 96.8342C125.823 96.7756 125.764 96.7463 125.691 96.7463H119.037C118.964 96.7463 118.898 96.7756 118.839 96.8342C118.796 96.8781 118.774 96.9367 118.774 97.0099V103.466C118.774 103.54 118.796 103.605 118.839 103.664C118.898 103.708 118.964 103.73 119.037 103.73Z" fill="#F8FFFD"/>
<defs>
<filter id="filter0_d_33_22" x="0.742626" y="-13.1231" width="137.829" height="126.514" filterUnits="userSpaceOnUse" color-interpolation-filters="sRGB">
<feFlood flood-opacity="0" result="BackgroundImageFix"/>
<feColorMatrix in="SourceAlpha" type="matrix" values="0 0 0 0 0 0 0 0 0 0 0 0 0 0 0 0 0 0 127 0" result="hardAlpha"/>
<feOffset/>
<feGaussianBlur stdDeviation="19.4988"/>
<feComposite in2="hardAlpha" operator="out"/>
<feColorMatrix type="matrix" values="0 0 0 0 0.156863 0 0 0 0 0.960784 0 0 0 0 0.745098 0 0 0 0.5 0"/>
<feBlend mode="normal" in2="BackgroundImageFix" result="effect1_dropShadow_33_22"/>
<feBlend mode="normal" in="SourceGraphic" in2="effect1_dropShadow_33_22" result="shape"/>
</filter>
<filter id="filter1_d_33_22" x="12.3257" y="-1.97507" width="114.785" height="101.39" filterUnits="userSpaceOnUse" color-interpolation-filters="sRGB">
<feFlood flood-opacity="0" result="BackgroundImageFix"/>
<feColorMatrix in="SourceAlpha" type="matrix" values="0 0 0 0 0 0 0 0 0 0 0 0 0 0 0 0 0 0 127 0" result="hardAlpha"/>
<feOffset/>
<feGaussianBlur stdDeviation="10.9875"/>
<feComposite in2="hardAlpha" operator="out"/>
<feColorMatrix type="matrix" values="0 0 0 0 0.156863 0 0 0 0 0.960784 0 0 0 0 0.745098 0 0 0 0.25 0"/>
<feBlend mode="normal" in2="BackgroundImageFix" result="effect1_dropShadow_33_22"/>
<feBlend mode="normal" in="SourceGraphic" in2="effect1_dropShadow_33_22" result="shape"/>
</filter>
<filter id="filter2_d_33_22" x="26.4681" y="12.1673" width="86.4999" height="73.1052" filterUnits="userSpaceOnUse" color-interpolation-filters="sRGB">
<feFlood flood-opacity="0" result="BackgroundImageFix"/>
<feColorMatrix in="SourceAlpha" type="matrix" values="0 0 0 0 0 0 0 0 0 0 0 0 0 0 0 0 0 0 127 0" result="hardAlpha"/>
<feOffset/>
<feGaussianBlur stdDeviation="3.91635"/>
<feComposite in2="hardAlpha" operator="out"/>
<feColorMatrix type="matrix" values="0 0 0 0 0.156863 0 0 0 0 0.960784 0 0 0 0 0.745098 0 0 0 0.5 0"/>
<feBlend mode="normal" in2="BackgroundImageFix" result="effect1_dropShadow_33_22"/>
<feBlend mode="normal" in="SourceGraphic" in2="effect1_dropShadow_33_22" result="shape"/>
</filter>
</defs>
</svg>
