<svg width="542" height="445" viewBox="0 0 542 445" fill="none" xmlns="http://www.w3.org/2000/svg">
<path class="triangulo" d="M277.837 83.7012L459.651 378.567H96.0232L277.837 83.7012Z" fill="#28F5BE"/>
<g filter="url(#filter0_d_244_14)">
<path d="M63.8625 396.579L278.208 48.9526L492.554 396.579H63.8625Z" stroke="#28F5BE" stroke-opacity="0.1" stroke-linejoin="round" shape-rendering="crispEdges"/>
</g>
<path id="ponta01" d="M277.835 47.9999L285.278 60.892H270.392L277.835 47.9999Z" fill="#28F5BE"/>
<path id="ponta02" d="M270.621 60.7598L277.835 48.2644L285.049 60.7598H270.621Z" stroke="white" stroke-opacity="0.5" stroke-width="0.264454"/>
<path id="ponta03" d="M63.2974 397.249L70.7406 384.357L78.1839 397.249L63.2974 397.249Z" fill="#28F5BE"/>
<path d="M493.375 397.249L478.489 397.249L485.932 384.357L493.375 397.249Z" fill="#28F5BE"/>
<path d="M206.372 265.774C206.707 265.016 206.363 264.131 205.605 263.797C204.847 263.462 203.962 263.806 203.628 264.564L206.372 265.774ZM196.274 278.43L195.31 277.281L195.31 277.281L196.274 278.43ZM181.708 285.636L181.156 284.242L181.708 285.636ZM154.558 291.402L154.461 289.905L154.558 291.402ZM93.0824 235.981L91.6309 236.36L91.6309 236.36L93.0824 235.981ZM81.7608 195.839L83.1243 195.214L83.1243 195.214L81.7608 195.839ZM69.1052 178.363L69.9797 177.144L69.9797 177.144L69.1052 178.363ZM51 169.505L50.8392 170.996L51 169.505ZM14.3363 178.903L13.201 177.923L13.201 177.923L14.3363 178.903ZM6.25989 200.74L17.2153 195.264L11.7401 184.309L0.78466 189.784L6.25989 200.74ZM203.628 264.564C201.401 269.612 199.268 273.958 195.31 277.281L197.239 279.578C201.784 275.763 204.148 270.819 206.372 265.774L203.628 264.564ZM195.31 277.281C191.431 280.537 186.218 282.237 181.156 284.242L182.26 287.031C187.028 285.143 192.883 283.235 197.239 279.578L195.31 277.281ZM181.156 284.242C172.414 287.704 163.897 289.294 154.461 289.905L154.655 292.899C164.327 292.272 173.164 290.634 182.26 287.031L181.156 284.242ZM154.461 289.905C139.043 290.904 125.914 284.337 115.681 273.981C105.432 263.608 98.1507 249.483 94.5339 235.603L91.6309 236.36C95.358 250.663 102.868 265.282 113.547 276.089C124.243 286.914 138.179 293.966 154.655 292.899L154.461 289.905ZM94.5339 235.603C92.7896 228.909 91.4474 222.204 89.7386 215.271C88.0542 208.438 86.0647 201.626 83.1243 195.214L80.3974 196.465C83.2217 202.623 85.1581 209.224 86.8258 215.989C88.4691 222.656 89.9053 229.737 91.6309 236.36L94.5339 235.603ZM83.1243 195.214C80.0825 188.581 76.3383 181.707 69.9797 177.144L68.2308 179.582C73.9058 183.654 77.3818 189.889 80.3974 196.465L83.1243 195.214ZM69.9797 177.144C64.4222 173.157 58.2063 168.773 51.1608 168.014L50.8392 170.996C56.9673 171.657 62.5477 175.504 68.2308 179.582L69.9797 177.144ZM51.1608 168.014C45.5129 167.405 38.2916 167.317 31.3779 168.635C24.4858 169.949 17.7128 172.698 13.201 177.923L15.4716 179.884C19.3587 175.382 25.3724 172.834 31.9398 171.582C38.4857 170.334 45.3967 170.41 50.8392 170.996L51.1608 168.014ZM13.201 177.923C11.2902 180.136 10.2679 182.598 9.52856 185.019C9.16123 186.221 8.85501 187.445 8.55421 188.614C8.24961 189.798 7.94766 190.939 7.57706 192.05L10.4229 192.999C10.8301 191.778 11.1546 190.547 11.4596 189.362C11.7684 188.162 12.0548 187.018 12.3977 185.895C13.0787 183.666 13.9468 181.65 15.4716 179.884L13.201 177.923Z" fill="#28F5BE"/>
<path d="M355.995 326.697C356.085 327.52 356.825 328.115 357.648 328.026C358.472 327.936 359.067 327.196 358.978 326.373L355.995 326.697ZM358.154 315.119L359.563 315.631L359.563 315.631L358.154 315.119ZM364.646 305.376L365.821 306.307L364.646 305.376ZM379.507 291.999L380.34 293.247L379.507 291.999ZM437.823 304.432L438.891 303.378L438.891 303.378L437.823 304.432ZM459.346 325.398L458.478 326.621L458.478 326.621L459.346 325.398ZM473.536 331.742L473.388 333.235L473.388 333.235L473.536 331.742ZM488.023 330.747L487.416 329.375L488.023 330.747ZM507.511 311.677L508.984 311.959L508.984 311.959L507.511 311.677ZM504.199 292.773L497.449 302.992L507.669 309.742L514.419 299.523L504.199 292.773ZM358.978 326.373C358.548 322.421 358.327 319.03 359.563 315.631L356.744 314.606C355.246 318.725 355.566 322.749 355.995 326.697L358.978 326.373ZM359.563 315.631C360.781 312.285 363.357 309.417 365.821 306.307L363.47 304.444C361.203 307.305 358.174 310.673 356.744 314.606L359.563 315.631ZM365.821 306.307C369.995 301.04 374.701 297.009 380.34 293.247L378.675 290.751C372.839 294.645 367.88 298.878 363.47 304.444L365.821 306.307ZM380.34 293.247C389.476 287.153 399.901 286.518 409.926 289.269C419.975 292.026 429.542 298.172 436.755 305.485L438.891 303.378C431.371 295.754 421.357 289.295 410.72 286.376C400.059 283.451 388.693 284.069 378.675 290.751L380.34 293.247ZM436.755 305.485C440.262 309.041 443.477 312.701 447.067 316.438C450.586 320.102 454.302 323.657 458.478 326.621L460.214 324.174C456.265 321.372 452.701 317.973 449.23 314.36C445.83 310.82 442.346 306.881 438.891 303.378L436.755 305.485ZM458.478 326.621C462.772 329.668 467.661 332.667 473.388 333.235L473.684 330.25C468.794 329.765 464.456 327.185 460.214 324.174L458.478 326.621ZM473.388 333.235C478.27 333.719 483.842 334.235 488.629 332.119L487.416 329.375C483.473 331.118 478.72 330.749 473.684 330.25L473.388 333.235ZM488.629 332.119C492.398 330.453 496.974 327.887 500.852 324.54C504.713 321.207 508.026 316.975 508.984 311.959L506.038 311.396C505.259 315.473 502.503 319.152 498.892 322.268C495.297 325.371 490.997 327.793 487.416 329.375L488.629 332.119ZM508.984 311.959C509.395 309.809 509.133 307.84 508.716 306.036C508.51 305.142 508.257 304.257 508.025 303.424C507.788 302.575 507.569 301.768 507.404 300.957L504.464 301.558C504.653 302.482 504.898 303.379 505.135 304.229C505.376 305.093 505.606 305.899 505.793 306.712C506.165 308.321 506.337 309.826 506.038 311.396L508.984 311.959Z" fill="#28F5BE"/>
<path d="M394.921 190.258L387.248 180.713L396.793 173.039L404.467 182.585L394.921 190.258ZM395.296 172.054L393.887 172.567L393.887 172.567L395.296 172.054ZM389.84 163.866L388.665 164.797L389.84 163.866ZM377.35 152.623L376.517 153.871L377.35 152.623ZM328.338 163.072L327.27 162.019L327.27 162.019L328.338 163.072ZM310.25 180.693L311.118 181.916L311.118 181.916L310.25 180.693ZM298.323 186.025L298.471 187.518L298.471 187.518L298.323 186.025ZM286.149 185.189L286.755 183.817L286.755 183.817L286.149 185.189ZM269.77 169.162L268.296 169.443L268.296 169.443L269.77 169.162ZM269.625 160.104C269.791 159.292 270.584 158.769 271.395 158.935C272.207 159.101 272.731 159.893 272.565 160.705L269.625 160.104ZM394.366 181.487C394.727 178.165 394.904 175.365 393.887 172.567L396.706 171.541C397.986 175.06 397.709 178.493 397.348 181.811L394.366 181.487ZM393.887 172.567C392.881 169.801 390.751 167.43 388.665 164.797L391.016 162.934C392.905 165.318 395.487 168.19 396.706 171.541L393.887 172.567ZM388.665 164.797C385.176 160.394 381.241 157.022 376.517 153.871L378.182 151.376C383.103 154.658 387.29 158.232 391.016 162.934L388.665 164.797ZM376.517 153.871C368.909 148.796 360.223 148.262 351.848 150.56C343.45 152.864 335.444 158.004 329.406 164.126L327.27 162.019C333.615 155.586 342.067 150.133 351.054 147.667C360.065 145.194 369.693 145.713 378.182 151.376L376.517 153.871ZM329.406 164.126C326.455 167.118 323.775 170.172 320.742 173.329C317.781 176.412 314.646 179.413 311.118 181.916L309.382 179.47C312.682 177.127 315.666 174.284 318.579 171.251C321.421 168.292 324.371 164.958 327.27 162.019L329.406 164.126ZM311.118 181.916C307.505 184.48 303.352 187.034 298.471 187.518L298.176 184.533C302.219 184.132 305.82 181.997 309.382 179.47L311.118 181.916ZM298.471 187.518C294.381 187.924 289.633 188.369 285.542 186.561L286.755 183.817C290.002 185.252 293.931 184.953 298.176 184.533L298.471 187.518ZM285.542 186.561C282.359 185.154 278.492 182.986 275.21 180.153C271.945 177.335 269.116 173.734 268.296 169.443L271.243 168.881C271.883 172.232 274.155 175.28 277.17 177.882C280.169 180.47 283.761 182.494 286.755 183.817L285.542 186.561ZM268.296 169.443C267.942 167.59 268.169 165.898 268.523 164.367C268.699 163.609 268.913 162.859 269.107 162.161C269.306 161.448 269.488 160.776 269.625 160.104L272.565 160.705C272.404 161.491 272.196 162.252 271.997 162.966C271.794 163.695 271.603 164.366 271.446 165.042C271.137 166.379 271 167.608 271.243 168.881L268.296 169.443Z" fill="#28F5BE"/>
<defs>
<filter id="filter0_d_244_14" x="15.3652" y="0.398312" width="525.686" height="444.282" filterUnits="userSpaceOnUse" color-interpolation-filters="sRGB">
<feFlood flood-opacity="0" result="BackgroundImageFix"/>
<feColorMatrix in="SourceAlpha" type="matrix" values="0 0 0 0 0 0 0 0 0 0 0 0 0 0 0 0 0 0 127 0" result="hardAlpha"/>
<feOffset/>
<feGaussianBlur stdDeviation="23.8008"/>
<feComposite in2="hardAlpha" operator="out"/>
<feColorMatrix type="matrix" values="0 0 0 0 0.156863 0 0 0 0 0.960784 0 0 0 0 0.745098 0 0 0 0.5 0"/>
<feBlend mode="normal" in2="BackgroundImageFix" result="effect1_dropShadow_244_14"/>
<feBlend mode="normal" in="SourceGraphic" in2="effect1_dropShadow_244_14" result="shape"/>
</filter>
</defs>
</svg>
